<svg xmlns="http://www.w3.org/2000/svg" viewBox="0 0 64 64"><defs><style>.cls-1{fill:none;}.cls-2{fill:#8c5ec6;}.cls-3{fill:#481a54;}.cls-4{fill:#fff;}</style></defs><g id="invisi-border"><rect class="cls-1" width="64" height="64"/></g><g id="icon"><rect class="cls-2" x="42.95" y="27" width="10.08" height="14"/><path class="cls-2" d="M43,45v9c.36,0,.71,0,1.11,0,3.92,0,6.72-.82,8.08-2.37a3.48,3.48,0,0,0,.91-2.37A2.28,2.28,0,0,1,53,49V45Z"/><path class="cls-2" d="M35.05,20.81c0,.06,0,.13,0,.19v2H53V21a1.48,1.48,0,0,1,0-.21,7.91,7.91,0,0,0-1.75-5.47,7.85,7.85,0,0,0-5.23-2.24V11h0V9h0V8h-4v3h0v2.17A8.44,8.44,0,0,0,36.8,15.6,7.45,7.45,0,0,0,35.05,20.81Z"/><path class="cls-3" d="M57,21.08a11.89,11.89,0,0,0-2.74-8.41,10.38,10.38,0,0,0-4.23-2.79V6a2,2,0,0,0-2-2h-8a2,2,0,0,0-2,2v4.09A10.93,10.93,0,0,0,33.8,13a11.42,11.42,0,0,0-2.74,8.12V23H9a2,2,0,0,0-2,2V58a2,2,0,0,0,2,2H41a2,2,0,0,0,2-2v0c.36,0,.72,0,1.11,0,5.18,0,8.91-1.26,11.09-3.73A7.41,7.41,0,0,0,57,48.91Z"/><path class="cls-2" d="M53.05,49.26a3.48,3.48,0,0,1-.91,2.37C50.78,53.18,48,54,44.06,54c-.4,0-.75,0-1.11,0V45H53v4A2.28,2.28,0,0,0,53.05,49.26Z"/><polygon class="cls-3" points="38.95 56 35.4 56 10.95 56 10.95 27 31.06 27 33.06 27 33.95 27 35.06 27 38.95 27 38.95 41 38.95 45 38.95 53.27 38.95 55.36 38.95 56"/><path class="cls-2" d="M42.06,13.17V11h0V8h4V9h0v2h0v2.08a7.85,7.85,0,0,1,5.23,2.24A7.91,7.91,0,0,1,53,20.79,1.48,1.48,0,0,0,53,21v2h-18V21c0-.06,0-.13,0-.19A7.45,7.45,0,0,1,36.8,15.6,8.44,8.44,0,0,1,42.06,13.17Z"/><rect class="cls-2" x="42.95" y="27" width="10.08" height="14"/><polygon class="cls-2" points="38.95 45 38.95 41 38.95 27 35.06 27 33.95 27 33.06 27 31.06 27 10.95 27 10.95 56 35.4 56 38.95 56 38.95 55.36 38.95 53.27 38.95 45"/><path class="cls-2" d="M19,50a2,2,0,0,1-4,0V43a2,2,0,0,1,4,0Z"/><path class="cls-2" d="M17,35a2,2,0,0,1,2-2h4a2,2,0,0,1,4,0h4.11a2,2,0,0,1,0,4H19A2,2,0,0,1,17,35Z"/><path class="cls-2" d="M27,50a2,2,0,0,1-4,0V43a2,2,0,0,1,4,0Z"/><path class="cls-2" d="M31,50V43a1.9,1.9,0,0,1,.11-.63A2,2,0,0,1,33,41h.11A2,2,0,0,1,35,43v7a2,2,0,0,1-1.06,1.75A1.89,1.89,0,0,1,33,52a2,2,0,0,1-2-2Z"/><path class="cls-3" d="M17,41a2,2,0,0,0-2,2v7a2,2,0,0,0,4,0V43A2,2,0,0,0,17,41Z"/><path class="cls-3" d="M33.89,51.75A2,2,0,0,0,35,50V43a2,2,0,0,0-1.89-2H33a2,2,0,0,0-1.89,1.37A1.9,1.9,0,0,0,31,43v7a2,2,0,0,0,2,2A1.89,1.89,0,0,0,33.89,51.75Z"/><path class="cls-3" d="M25,41a2,2,0,0,0-2,2v7a2,2,0,0,0,4,0V43A2,2,0,0,0,25,41Z"/><path class="cls-4" d="M31,37h.11a2,2,0,0,0,0-4H27a2,2,0,0,0-4,0H19a2,2,0,0,0,0,4H31Z"/></g></svg>